<svg width="520" height="733" viewBox="0 0 520 733" fill="none" xmlns="http://www.w3.org/2000/svg">
<path d="M34.7237 302.995C34.7237 310.585 35.2187 315.7 36.2087 318.34C37.1987 320.98 40.1687 322.3 45.1187 322.3C50.0687 322.3 53.0387 320.98 54.0287 318.34C55.0187 315.7 55.5137 310.585 55.5137 302.995V248.05H90.1637V302.995C90.1637 322.795 86.5337 336.82 79.2737 345.07C72.3437 352.99 60.9587 356.95 45.1187 356.95C29.2787 356.95 17.7287 352.825 10.4687 344.575C3.53874 336.325 0.0737373 322.3 0.0737373 302.5V54.505C0.0737373 34.705 3.53874 20.845 10.4687 12.925C17.7287 4.67498 29.2787 0.549981 45.1187 0.549981C60.9587 0.549981 72.3437 4.67498 79.2737 12.925C86.5337 20.845 90.1637 34.705 90.1637 54.505V109.45H55.5137V54.505C55.5137 46.915 55.0187 41.8 54.0287 39.16C53.0387 36.52 50.0687 35.2 45.1187 35.2C40.1687 35.2 37.1987 36.52 36.2087 39.16C35.2187 41.8 34.7237 46.915 34.7237 54.505V302.995ZM149.405 352H114.755V5.49998H149.405V139.15H170.195V5.49998H204.845V352H170.195V173.8H149.405V352ZM229.437 5.49998H308.637V40.15H264.087V139.15H303.687V173.8H264.087V317.35H308.637V352H229.437V5.49998ZM358.349 298.045C358.349 305.635 358.844 310.75 359.834 313.39C360.824 316.03 363.794 317.35 368.744 317.35C373.694 317.35 376.664 316.03 377.654 313.39C378.644 310.75 379.139 305.635 379.139 298.045V229.24C379.139 218.35 377.654 209.275 374.684 202.015C372.044 194.425 368.744 187.66 364.784 181.72C360.824 175.78 356.369 170.17 351.419 164.89C346.469 159.61 342.014 154 338.054 148.06C334.094 141.79 330.629 134.86 327.659 127.27C325.019 119.35 323.699 109.78 323.699 98.56V54.505C323.699 34.705 327.164 20.845 334.094 12.925C341.354 4.67498 352.904 0.549981 368.744 0.549981C384.584 0.549981 395.969 4.67498 402.899 12.925C410.159 20.845 413.789 34.705 413.789 54.505V84.205H379.139V54.505C379.139 46.915 378.644 41.8 377.654 39.16C376.664 36.52 373.694 35.2 368.744 35.2C363.794 35.2 360.824 36.52 359.834 39.16C358.844 41.8 358.349 46.915 358.349 54.505V101.53C358.349 112.09 361.154 121.165 366.764 128.755C372.704 136.015 379.139 143.935 386.069 152.515C392.999 161.095 399.269 171.49 404.879 183.7C410.819 195.91 413.789 211.915 413.789 231.715V297.55C413.789 317.35 410.159 331.375 402.899 339.625C395.969 347.875 384.584 352 368.744 352C352.904 352 341.354 348.04 334.094 340.12C327.164 331.87 323.699 317.845 323.699 298.045V248.05H358.349V298.045ZM463.363 298.045C463.363 305.635 463.858 310.75 464.848 313.39C465.838 316.03 468.808 317.35 473.758 317.35C478.708 317.35 481.678 316.03 482.668 313.39C483.658 310.75 484.153 305.635 484.153 298.045V229.24C484.153 218.35 482.668 209.275 479.698 202.015C477.058 194.425 473.758 187.66 469.798 181.72C465.838 175.78 461.383 170.17 456.433 164.89C451.483 159.61 447.028 154 443.068 148.06C439.108 141.79 435.643 134.86 432.673 127.27C430.033 119.35 428.713 109.78 428.713 98.56V54.505C428.713 34.705 432.178 20.845 439.108 12.925C446.368 4.67498 457.918 0.549981 473.758 0.549981C489.598 0.549981 500.983 4.67498 507.913 12.925C515.173 20.845 518.803 34.705 518.803 54.505V84.205H484.153V54.505C484.153 46.915 483.658 41.8 482.668 39.16C481.678 36.52 478.708 35.2 473.758 35.2C468.808 35.2 465.838 36.52 464.848 39.16C463.858 41.8 463.363 46.915 463.363 54.505V101.53C463.363 112.09 466.168 121.165 471.778 128.755C477.718 136.015 484.153 143.935 491.083 152.515C498.013 161.095 504.283 171.49 509.893 183.7C515.833 195.91 518.803 211.915 518.803 231.715V297.55C518.803 317.35 515.173 331.375 507.913 339.625C500.983 347.875 489.598 352 473.758 352C457.918 352 446.368 348.04 439.108 340.12C432.178 331.87 428.713 317.845 428.713 298.045V248.05H463.363V298.045ZM85.8887 556V584H73.8887V688.4C73.8887 704.4 70.9554 715.733 65.0887 722.4C59.4887 728.8 50.2887 732 37.4887 732C24.6887 732 15.3554 728.667 9.48869 722C3.88868 715.333 1.08868 704 1.08868 688V597.6C1.08868 591.2 1.88868 585.467 3.48868 580.4C5.35535 575.333 8.15535 572 11.8887 570.4V569.6C4.68868 566.4 1.08868 558.267 1.08868 545.2V487.6C1.08868 471.6 3.88868 460.4 9.48869 454C15.3554 447.333 24.6887 444 37.4887 444C50.2887 444 59.4887 447.333 65.0887 454C70.9554 460.4 73.8887 471.6 73.8887 487.6V512H45.8887V487.6C45.8887 481.467 45.4887 477.333 44.6887 475.2C43.8887 473.067 41.4887 472 37.4887 472C33.4887 472 31.0887 473.067 30.2887 475.2C29.4887 477.333 29.0887 481.467 29.0887 487.6V543.2C29.0887 548.533 30.022 552 31.8887 553.6C34.022 555.2 36.822 556 40.2887 556H85.8887ZM45.8887 584H35.8887C33.4887 584 31.7554 584.933 30.6887 586.8C29.622 588.4 29.0887 590.267 29.0887 592.4V688.4C29.0887 694.533 29.4887 698.667 30.2887 700.8C31.0887 702.933 33.4887 704 37.4887 704C41.4887 704 43.8887 702.933 44.6887 700.8C45.4887 698.667 45.8887 694.533 45.8887 688.4V584ZM202.063 381.5V678.5C202.063 698.3 198.433 712.325 191.173 720.575C184.243 728.825 172.858 732.95 157.018 732.95C141.178 732.95 129.628 728.99 122.368 721.07C115.438 712.82 111.973 698.795 111.973 678.995V624.05H146.623V678.995C146.623 686.585 147.118 691.7 148.108 694.34C149.098 696.98 152.068 698.3 157.018 698.3C161.968 698.3 164.938 696.98 165.928 694.34C166.918 691.7 167.413 686.585 167.413 678.995V381.5H202.063ZM221.705 728L239.525 381.5H293.48L311.795 728H277.64L275.165 653.75H258.335L255.86 728H221.705ZM259.325 624.05H274.175L267.245 416.15H266.255L259.325 624.05ZM405.918 698.3V728H326.718L375.723 411.2H336.618V381.5H415.818L366.813 698.3H405.918ZM509.965 698.3V728H430.765L479.77 411.2H440.665V381.5H519.865L470.86 698.3H509.965Z" fill="#F4F3F3"/>
</svg>
