<svg width="176" height="30" viewBox="0 0 176 30" fill="none" xmlns="http://www.w3.org/2000/svg">
<path d="M173.752 4.78533C173.97 4.78533 174.167 4.76979 174.167 4.50869C174.167 4.29649 173.973 4.25649 173.795 4.25649H173.442V4.78533H173.752ZM173.442 5.74636H173.187V4.03651H173.834C174.236 4.03651 174.435 4.18539 174.435 4.52203C174.435 4.83089 174.246 4.96199 173.992 4.99421L174.478 5.74636H174.188L173.739 5.00754H173.442V5.74636ZM173.755 6.12633C174.423 6.12633 174.949 5.60082 174.949 4.88866C174.949 4.18539 174.423 3.65543 173.755 3.65543C173.083 3.65543 172.554 4.18539 172.554 4.88866C172.554 5.60082 173.083 6.12633 173.755 6.12633ZM172.258 4.88866C172.258 4.03651 172.943 3.40768 173.755 3.40768C174.56 3.40768 175.246 4.03651 175.246 4.88866C175.246 5.74636 174.56 6.37409 173.755 6.37409C172.943 6.37409 172.258 5.74636 172.258 4.88866ZM104.113 28.944H103.206L103.879 27.7274L102.14 24.5244H103.092L104.336 27.0275L105.51 24.5244H106.385L104.113 28.944ZM99.7867 24.9387C99.0951 24.9387 98.6392 25.3831 98.6392 26.1286C98.6392 26.873 99.0641 27.3007 99.7867 27.3007C100.492 27.3007 100.935 26.8363 100.935 26.1164C100.935 25.3831 100.517 24.9387 99.7867 24.9387ZM100.016 27.8429C99.2799 27.8429 98.8616 27.5796 98.6126 27.2429C98.6126 27.3463 98.5894 27.6318 98.5828 27.7218H97.7905C97.796 27.5485 97.8137 27.1874 97.8137 27.0452V23.1222H98.6392V25.0209C98.9435 24.6709 99.3429 24.4043 100.022 24.4043C100.992 24.4043 101.805 25.002 101.805 26.1108C101.805 27.1674 100.987 27.8429 100.016 27.8429ZM169.486 27.8601L164.884 21.0674V27.8601H163.459V19.6597H165.627L170.234 26.4524V19.6597H171.659V27.8601H169.486ZM157.101 20.8408L155.189 24.7694H159.003L157.101 20.8408ZM160.507 27.8602L159.557 25.8959H154.625L153.663 27.8602H151.967L156.207 19.6598H158.087L162.304 27.8602H160.507ZM149.274 27.8601V20.6952L145.936 27.8601H144.206L140.871 20.6952V27.8601H139.456V19.6597H141.967L145.145 26.5424L148.312 19.6597H150.812V27.8601H149.274ZM133.984 20.8075H131.63V23.2384H133.984C135.238 23.2384 135.77 22.8962 135.77 22.0107C135.77 21.1597 135.238 20.8075 133.984 20.8075ZM136.063 27.8602C135.962 27.418 135.86 26.8036 135.77 26.4514L135.521 25.4393C135.283 24.4994 134.944 24.3839 133.733 24.3839H131.63V27.8602H130.046V19.6598H134.356C136.494 19.6598 137.398 20.522 137.398 21.8641C137.398 23.3295 135.814 23.7495 135.44 23.8061C136.425 23.885 136.967 24.1583 137.184 25.4304L137.476 26.837C137.555 27.2792 137.67 27.7013 137.748 27.8602H136.063ZM123.688 20.8408L121.778 24.7694H125.589L123.688 20.8408ZM127.094 27.8602L126.144 25.8959H121.212L120.253 27.8602H118.554L122.795 19.6598H124.673L128.893 27.8602H127.094ZM115.818 27.8601V24.2371H110.988V27.8601H109.404V19.6597H110.988V23.0461H115.818V19.6597H117.401V27.8601H115.818ZM84.0216 17.1107L94.028 0.251068H94.652L84.6147 17.1107H84.0216ZM160.516 4.60546H163.779V6.49308H163.828C164.451 5.18097 165.665 4.39882 166.927 4.39882C169.817 4.39882 171.772 5.5976 171.772 8.72622V17.0899H168.513V9.67391C168.513 8.56511 168.368 7.25412 166.155 7.25412C164.173 7.25412 163.779 8.33736 163.779 9.34949V17.0899H160.516V4.60546ZM149.802 8.56567C149.542 9.05119 149.194 9.96888 149.194 11.0055C149.194 12.0443 149.542 12.9642 149.802 13.4475C150.408 14.4852 151.315 14.8529 152.133 14.8529C152.948 14.8529 153.857 14.4852 154.461 13.4475C154.719 12.9642 155.069 12.0443 155.069 11.0055C155.069 9.96888 154.719 9.05119 154.461 8.56567C153.857 7.53021 152.948 7.16246 152.133 7.16246C151.315 7.16246 150.408 7.53021 149.802 8.56567ZM147.773 16.0972C146.519 14.9684 145.914 13.0364 145.914 11.0055C145.914 8.98008 146.519 7.04803 147.773 5.91813C148.892 4.90377 150.503 4.39937 152.133 4.39937C153.764 4.39937 155.371 4.90377 156.492 5.91813C157.745 7.04803 158.356 8.98008 158.356 11.0055C158.356 13.0364 157.745 14.9684 156.492 16.0972C155.371 17.1083 153.764 17.6182 152.133 17.6182C150.503 17.6182 148.892 17.1083 147.773 16.0972ZM135.587 8.59122C135.357 9.07563 135.027 9.99555 135.027 11.0321C135.027 12.0676 135.357 12.9875 135.587 13.473C136.146 14.5085 137.008 14.8773 137.778 14.8773C138.524 14.8773 139.383 14.5085 139.947 13.473C140.178 12.9875 140.506 12.0676 140.506 11.0321C140.506 9.99555 140.178 9.07563 139.947 8.59122C139.383 7.55687 138.524 7.18579 137.778 7.18579C137.008 7.18579 136.146 7.55687 135.587 8.59122ZM143.764 17.156H140.506V15.8428H140.457C139.572 17.1338 138.293 17.5727 137.261 17.6182C134.984 17.7071 133.68 16.8083 132.698 14.7351C132.187 13.6086 131.812 12.4831 131.743 11.2599C131.672 10.0411 131.907 8.72677 132.558 7.23134C133.628 4.81267 135.703 4.46936 136.891 4.39937C139.013 4.30716 139.994 5.25263 140.457 6.30921H140.506V0.301947H143.764V17.156ZM123.446 4.60546H126.704V7.02414H126.758C126.967 6.28532 127.129 5.85313 128.272 5.06764C128.83 4.65323 129.573 4.23994 130.598 4.39882V7.69075C129.201 7.52965 127.102 7.34522 126.704 10.0628V17.0899H123.446V4.60546ZM117.387 11.2159C116.454 11.7692 115.195 11.7225 114.353 11.8847C113.355 12.068 112.655 12.8957 112.935 13.9079C113.119 14.6478 113.704 15.1744 115.1 14.9478C117.038 14.6478 117.387 13.3101 117.387 11.9303V11.2159ZM117.757 17.0898C117.522 16.7876 117.387 16.281 117.41 15.8433C116.265 16.8998 115.266 17.6175 113.355 17.6175C110.787 17.6175 109.53 16.1888 109.626 13.7701C109.697 12.0192 110.395 10.3171 113.284 9.83267C114.495 9.78601 115.799 9.5127 116.571 9.25939C117.151 9.04941 117.431 8.44946 117.387 7.85173C117.387 7.06958 116.734 6.72294 115.244 6.72294C113.375 6.72294 113.145 7.85173 113.095 8.75054H110.02C110.067 4.76644 113.517 4.3987 115.244 4.3987C116.495 4.3987 117.591 4.60535 118.223 4.85866C119.482 5.36418 120.482 6.37853 120.482 8.35725V15.1744C120.459 15.7288 120.788 16.281 121.206 16.6487V17.0898H117.757ZM100.554 0.301395V9.46504H100.601L104.677 4.60546H108.409L104.144 9.37394L108.685 17.0899H104.865L101.908 11.7459L100.554 13.1936V17.0899H97.2929V0.301395H100.554ZM70.1679 4.60546H73.4344V6.49308H73.4765C74.1105 5.18097 75.3188 4.39882 76.5803 4.39882C79.4694 4.39882 81.4246 5.5976 81.4246 8.72622V17.0899H78.1637V9.67391C78.1637 8.56511 78.0199 7.25412 75.8068 7.25412C73.8272 7.25412 73.4344 8.33736 73.4344 9.34949V17.0899H70.1679V4.60546ZM64.0852 11.2159C63.1512 11.7692 61.8931 11.7225 61.0566 11.8847C60.0519 12.068 59.3525 12.8957 59.6336 13.9079C59.8195 14.6478 60.4015 15.1744 61.8013 14.9478C63.7355 14.6478 64.0852 13.3101 64.0852 11.9303V11.2159ZM64.4569 17.0898C64.2235 16.7876 64.0852 16.281 64.1062 15.8433C62.9631 16.8998 61.9639 17.6175 60.0519 17.6175C57.4903 17.6175 56.2332 16.1888 56.3251 13.7701C56.3959 12.0192 57.093 10.3171 59.9822 9.83267C61.196 9.78601 62.5006 9.5127 63.2696 9.25939C63.8539 9.04941 64.1327 8.44946 64.0852 7.85173C64.0852 7.06958 63.4301 6.72294 61.9429 6.72294C60.074 6.72294 59.8427 7.85173 59.7952 8.75054H56.7179C56.7655 4.76644 60.2178 4.3987 61.9429 4.3987C63.1988 4.3987 64.2943 4.60535 64.9228 4.85866C66.1842 5.36418 67.1834 6.37853 67.1834 8.35725V15.1744C67.1602 15.7288 67.4855 16.281 67.9027 16.6487V17.0898H64.4569ZM36.559 17.09V4.60557H39.8233V6.47208H39.8653C40.8922 4.99443 41.8261 4.14339 43.7381 4.39893C45.3426 4.60557 45.7896 5.15997 46.718 6.21655C47.5092 5.11331 48.4907 4.09895 51.143 4.39893C53.6659 4.76667 54.3608 6.4243 54.3608 8.42857V17.09H51.0999V8.49856C51.0523 7.57531 50.2412 7.2309 49.4688 7.18646C47.7227 7.0698 47.0953 8.59078 47.0953 9.44182V17.09H43.8289V8.49856C43.6419 7.62197 43.061 7.20757 42.0363 7.18646C40.8922 7.16202 39.8233 7.90085 39.8233 9.44182V17.09H36.559ZM27.1395 4.60546H30.4037V7.02414H30.4491C30.6571 6.28532 30.8231 5.85313 31.9628 5.06764C32.5216 4.65323 33.2685 4.23994 34.2932 4.39882V7.69075C32.8967 7.52965 30.7965 7.34522 30.4037 10.0628V17.0899H27.1395V4.60546ZM21.0819 11.2159C20.148 11.7692 18.891 11.7225 18.0489 11.8847C17.0486 12.068 16.3504 12.8957 16.6304 13.9079C16.8129 14.6478 17.3983 15.1744 18.7936 14.9478C20.7334 14.6478 21.0819 13.3101 21.0819 11.9303V11.2159ZM21.4526 17.0898C21.2169 16.7876 21.0819 16.281 21.1041 15.8433C19.9643 16.8998 18.9607 17.6175 17.0486 17.6175C14.487 17.6175 13.2256 16.1888 13.3174 13.7701C13.3927 12.0192 14.0898 10.3171 16.98 9.83267C18.1928 9.78601 19.4985 9.5127 20.2664 9.25939C20.8462 9.04941 21.1251 8.44946 21.0819 7.85173C21.0819 7.06958 20.428 6.72294 18.9386 6.72294C17.0708 6.72294 16.8395 7.85173 16.7919 8.75054H13.7147C13.7634 4.76644 17.2102 4.3987 18.9386 4.3987C20.1956 4.3987 21.2911 4.60535 21.9196 4.85866C23.1777 5.36418 24.1802 6.37853 24.1802 8.35725V15.1744C24.1592 15.7288 24.4823 16.281 24.9016 16.6487V17.0898H21.4526ZM0.250244 0.301395H3.5145V6.26643H3.55876C4.18726 5.18097 5.40112 4.39882 6.66146 4.39882C9.55059 4.39882 11.5058 5.5976 11.5058 8.72622V17.0899H8.246V9.67391C8.246 8.56511 8.10215 7.25412 5.8891 7.25412C3.90731 7.25412 3.5145 8.33736 3.5145 9.34949V17.0899H0.250244V0.301395ZM84.0216 17.1107L94.028 0.251068H94.652L84.6147 17.1107H84.0216ZM160.516 4.60546H163.779V6.49308H163.828C164.451 5.18097 165.665 4.39882 166.927 4.39882C169.817 4.39882 171.772 5.5976 171.772 8.72622V17.0899H168.513V9.67391C168.513 8.56511 168.368 7.25412 166.155 7.25412C164.173 7.25412 163.779 8.33736 163.779 9.34949V17.0899H160.516V4.60546ZM149.802 8.56567C149.542 9.05119 149.194 9.96888 149.194 11.0055C149.194 12.0443 149.542 12.9642 149.802 13.4475C150.408 14.4852 151.315 14.8529 152.133 14.8529C152.948 14.8529 153.857 14.4852 154.461 13.4475C154.719 12.9642 155.069 12.0443 155.069 11.0055C155.069 9.96888 154.719 9.05119 154.461 8.56567C153.857 7.53021 152.948 7.16246 152.133 7.16246C151.315 7.16246 150.408 7.53021 149.802 8.56567ZM147.773 16.0972C146.519 14.9684 145.914 13.0364 145.914 11.0055C145.914 8.98008 146.519 7.04803 147.773 5.91813C148.892 4.90377 150.503 4.39937 152.133 4.39937C153.764 4.39937 155.371 4.90377 156.492 5.91813C157.745 7.04803 158.356 8.98008 158.356 11.0055C158.356 13.0364 157.745 14.9684 156.492 16.0972C155.371 17.1083 153.764 17.6182 152.133 17.6182C150.503 17.6182 148.892 17.1083 147.773 16.0972ZM135.587 8.59122C135.357 9.07563 135.027 9.99555 135.027 11.0321C135.027 12.0676 135.357 12.9875 135.587 13.473C136.146 14.5085 137.008 14.8773 137.778 14.8773C138.524 14.8773 139.383 14.5085 139.947 13.473C140.178 12.9875 140.506 12.0676 140.506 11.0321C140.506 9.99555 140.178 9.07563 139.947 8.59122C139.383 7.55687 138.524 7.18579 137.778 7.18579C137.008 7.18579 136.146 7.55687 135.587 8.59122ZM143.764 17.156H140.506V15.8428H140.457C139.572 17.1338 138.293 17.5727 137.261 17.6182C134.984 17.7071 133.68 16.8083 132.698 14.7351C132.187 13.6086 131.812 12.4831 131.743 11.2599C131.672 10.0411 131.907 8.72677 132.558 7.23134C133.628 4.81267 135.703 4.46936 136.891 4.39937C139.013 4.30716 139.994 5.25263 140.457 6.30921H140.506V0.301947H143.764V17.156ZM123.446 4.60546H126.704V7.02414H126.758C126.967 6.28532 127.129 5.85313 128.272 5.06764C128.83 4.65323 129.573 4.23994 130.598 4.39882V7.69075C129.201 7.52965 127.102 7.34522 126.704 10.0628V17.0899H123.446V4.60546ZM117.387 11.2159C116.454 11.7692 115.195 11.7225 114.353 11.8847C113.355 12.068 112.655 12.8957 112.935 13.9079C113.119 14.6478 113.704 15.1744 115.1 14.9478C117.038 14.6478 117.387 13.3101 117.387 11.9303V11.2159ZM117.757 17.0898C117.522 16.7876 117.387 16.281 117.41 15.8433C116.265 16.8998 115.266 17.6175 113.355 17.6175C110.787 17.6175 109.53 16.1888 109.626 13.7701C109.697 12.0192 110.395 10.3171 113.284 9.83267C114.495 9.78601 115.799 9.5127 116.571 9.25939C117.151 9.04941 117.431 8.44946 117.387 7.85173C117.387 7.06958 116.734 6.72294 115.244 6.72294C113.375 6.72294 113.145 7.85173 113.095 8.75054H110.02C110.067 4.76644 113.517 4.3987 115.244 4.3987C116.495 4.3987 117.591 4.60535 118.223 4.85866C119.482 5.36418 120.482 6.37853 120.482 8.35725V15.1744C120.459 15.7288 120.788 16.281 121.206 16.6487V17.0898H117.757ZM100.554 0.301395V9.46504H100.601L104.677 4.60546H108.409L104.144 9.37394L108.685 17.0899H104.865L101.908 11.7459L100.554 13.1936V17.0899H97.2929V0.301395H100.554ZM70.1679 4.60546H73.4344V6.49308H73.4765C74.1105 5.18097 75.3188 4.39882 76.5803 4.39882C79.4694 4.39882 81.4246 5.5976 81.4246 8.72622V17.0899H78.1637V9.67391C78.1637 8.56511 78.0199 7.25412 75.8068 7.25412C73.8272 7.25412 73.4344 8.33736 73.4344 9.34949V17.0899H70.1679V4.60546ZM64.0852 11.2159C63.1512 11.7692 61.8931 11.7225 61.0566 11.8847C60.0519 12.068 59.3525 12.8957 59.6336 13.9079C59.8195 14.6478 60.4015 15.1744 61.8013 14.9478C63.7355 14.6478 64.0852 13.3101 64.0852 11.9303V11.2159ZM64.4569 17.0898C64.2235 16.7876 64.0852 16.281 64.1062 15.8433C62.9631 16.8998 61.9639 17.6175 60.0519 17.6175C57.4903 17.6175 56.2332 16.1888 56.3251 13.7701C56.3959 12.0192 57.093 10.3171 59.9822 9.83267C61.196 9.78601 62.5006 9.5127 63.2696 9.25939C63.8539 9.04941 64.1327 8.44946 64.0852 7.85173C64.0852 7.06958 63.4301 6.72294 61.9429 6.72294C60.074 6.72294 59.8427 7.85173 59.7952 8.75054H56.7179C56.7655 4.76644 60.2178 4.3987 61.9429 4.3987C63.1988 4.3987 64.2943 4.60535 64.9228 4.85866C66.1842 5.36418 67.1834 6.37853 67.1834 8.35725V15.1744C67.1602 15.7288 67.4855 16.281 67.9027 16.6487V17.0898H64.4569ZM36.559 17.09V4.60557H39.8233V6.47208H39.8653C40.8922 4.99443 41.8261 4.14339 43.7381 4.39893C45.3426 4.60557 45.7896 5.15997 46.718 6.21655C47.5092 5.11331 48.4907 4.09895 51.143 4.39893C53.6659 4.76667 54.3608 6.4243 54.3608 8.42857V17.09H51.0999V8.49856C51.0523 7.57531 50.2412 7.2309 49.4688 7.18646C47.7227 7.0698 47.0953 8.59078 47.0953 9.44182V17.09H43.8289V8.49856C43.6419 7.62197 43.061 7.20757 42.0363 7.18646C40.8922 7.16202 39.8233 7.90085 39.8233 9.44182V17.09H36.559ZM27.1395 4.60546H30.4037V7.02414H30.4491C30.6571 6.28532 30.8231 5.85313 31.9628 5.06764C32.5216 4.65323 33.2685 4.23994 34.2932 4.39882V7.69075C32.8967 7.52965 30.7965 7.34522 30.4037 10.0628V17.0899H27.1395V4.60546ZM21.0819 11.2159C20.148 11.7692 18.891 11.7225 18.0489 11.8847C17.0486 12.068 16.3504 12.8957 16.6304 13.9079C16.8129 14.6478 17.3983 15.1744 18.7936 14.9478C20.7334 14.6478 21.0819 13.3101 21.0819 11.9303V11.2159ZM21.4526 17.0898C21.2169 16.7876 21.0819 16.281 21.1041 15.8433C19.9643 16.8998 18.9607 17.6175 17.0486 17.6175C14.487 17.6175 13.2256 16.1888 13.3174 13.7701C13.3927 12.0192 14.0898 10.3171 16.98 9.83267C18.1928 9.78601 19.4985 9.5127 20.2664 9.25939C20.8462 9.04941 21.1251 8.44946 21.0819 7.85173C21.0819 7.06958 20.428 6.72294 18.9386 6.72294C17.0708 6.72294 16.8395 7.85173 16.7919 8.75054H13.7147C13.7634 4.76644 17.2102 4.3987 18.9386 4.3987C20.1956 4.3987 21.2911 4.60535 21.9196 4.85866C23.1777 5.36418 24.1802 6.37853 24.1802 8.35725V15.1744C24.1592 15.7288 24.4823 16.281 24.9016 16.6487V17.0898H21.4526ZM0.250244 0.301395H3.5145V6.26643H3.55876C4.18726 5.18097 5.40112 4.39882 6.66146 4.39882C9.55059 4.39882 11.5058 5.5976 11.5058 8.72622V17.0899H8.246V9.67391C8.246 8.56511 8.10215 7.25412 5.8891 7.25412C3.90731 7.25412 3.5145 8.33736 3.5145 9.34949V17.0899H0.250244V0.301395Z" fill="#989898"/>
</svg>
