<svg width="28" height="28" viewBox="0 0 28 28" fill="none" xmlns="http://www.w3.org/2000/svg">
<path d="M13.9989 10.277C11.9465 10.277 10.2795 11.9411 10.2795 13.9972C10.2795 16.0524 11.9474 17.7184 13.9989 17.7184C16.0513 17.7184 17.7201 16.0524 17.7201 13.9972C17.7201 11.9411 16.0513 10.277 13.9989 10.277ZM13.9989 16.4295C12.6511 16.4295 11.5657 15.3403 11.5657 13.9972C11.5657 12.6542 12.6511 11.565 13.9989 11.565C15.3326 11.565 16.4321 12.6542 16.4321 13.9972C16.4321 15.3403 15.3466 16.4295 13.9989 16.4295Z" fill="#F4F3F3"/>
<path d="M18.0938 8.91833C17.615 8.91833 17.2351 9.29914 17.2351 9.77794C17.2351 10.2558 17.615 10.6357 18.0938 10.6357C18.5726 10.6357 18.9534 10.2558 18.9534 9.77794C18.9534 9.29914 18.5716 8.91833 18.0938 8.91833Z" fill="#F4F3F3"/>
<path d="M14.0034 0.144531C6.34636 0.144531 0.140625 6.3484 0.140625 14.0045C0.140625 21.6588 6.34636 27.8645 14.0034 27.8645C21.6558 27.8645 27.8634 21.6597 27.8634 14.0045C27.8634 6.3484 21.6558 0.144531 14.0034 0.144531ZM21.1565 17.0519C21.1565 19.3133 19.3094 21.1595 17.0349 21.1595H10.9682C8.69276 21.1595 6.84569 19.3124 6.84569 17.0659V10.9563C6.84569 8.69573 8.69183 6.8496 10.9682 6.8496H17.0349C19.3104 6.8496 21.1565 8.69573 21.1565 10.9563V17.0519Z" fill="#F4F3F3"/>
</svg>
