<svg width="110" height="22" viewBox="0 0 110 22" fill="none" xmlns="http://www.w3.org/2000/svg">
<path d="M49.6309 19.1238H53.5627V10.9892C53.5627 6.69208 50.8215 4.41075 47.5234 4.41075C45.3406 4.41075 43.6915 5.35777 42.5036 6.66882H41.9699C41.0735 5.50283 39.5216 4.41075 37.2184 4.41075C35.1286 4.41075 33.459 5.33314 32.5859 6.40195H32.0522V4.82405H28.39V19.1238H32.2972V11.6461C32.2972 9.09521 33.0499 8.22209 35.6678 8.22209C38.2858 8.22209 39.0125 9.09521 39.0125 11.6461V19.1224H42.9457V11.6461C42.9457 9.09521 43.6723 8.22209 46.2917 8.22209C48.9124 8.22209 49.6377 9.09521 49.6377 11.6461L49.6323 19.1224L49.6309 19.1238ZM12.7273 17.0764C12.0252 16.5673 11.7091 15.8147 11.7091 14.6747C11.7091 13.2418 12.147 11.4764 12.8737 10.7169C13.3828 10.2065 14.1095 9.96422 15.1044 9.96422C16.5112 9.96422 18.2328 10.3337 18.9595 11.0809C19.4454 11.5668 19.6643 12.2456 19.6643 13.1926C19.6643 14.5529 19.2757 16.4702 18.4258 17.2708C17.9414 17.7087 17.2872 17.9017 16.3662 17.9017C15.1071 17.9017 13.5251 17.6088 12.7273 17.0764ZM18.913 20.0872L18.7419 21.3982L22.4014 21.8499L24.1353 7.68152L20.4772 7.23128L20.3062 8.60528H19.8833C19.3359 7.63499 17.8688 6.32258 15.1044 6.32258C11.2493 6.32258 8.41232 9.16364 7.90186 13.0461C7.85456 13.4252 7.83034 13.8068 7.82933 14.1889C7.82933 17.9017 10.3515 20.9617 14.2792 21.3982C14.4981 21.4188 14.7157 21.4256 14.9347 21.4229C16.5838 21.4229 17.8209 20.7194 18.4518 20.0886H18.9116L18.913 20.0872ZM101.695 15.894C98.7609 15.894 97.7906 14.9238 97.7906 11.9869C97.7906 9.04868 98.7623 8.04966 101.695 8.04966C104.629 8.04966 105.599 9.04457 105.599 11.9869C105.599 14.9279 104.629 15.894 101.695 15.894ZM82.8778 15.894C79.9423 15.894 78.9734 14.9238 78.9734 11.9869C78.9734 9.04868 79.9423 8.04966 82.8764 8.04966C85.8106 8.04966 86.7822 9.04457 86.7822 11.9869C86.7822 14.9279 85.8106 15.894 82.8764 15.894H82.8778ZM64.5437 15.894C61.611 15.894 60.6407 14.9238 60.6407 11.9869C60.6407 9.04868 61.611 8.04966 64.5437 8.04966C67.4764 8.04966 68.4495 9.04457 68.4495 11.9869C68.4495 14.9279 67.4778 15.894 64.5437 15.894ZM2.38397 0L0 19.095L3.89208 19.5699L6.23773 0.473509L2.38397 0ZM105.769 17.7402V19.1224H109.43V4.82542H105.769V6.21036H105.235C104.652 5.43304 103.174 4.41349 101.18 4.41349C96.8149 4.41349 93.8342 7.7349 93.8342 11.9883C93.8342 16.2403 96.8162 19.5384 101.18 19.5384C103.17 19.5384 104.648 18.5189 105.235 17.7415H105.769V17.7402ZM64.5437 4.41212C59.6936 4.41212 56.6884 7.73353 56.6884 11.9869C56.6884 16.2389 59.6936 19.537 64.5437 19.537C69.3937 19.537 72.4086 16.2348 72.4086 11.9869C72.4086 7.73763 69.4006 4.41212 64.5437 4.41212ZM86.9998 17.7402V19.1224H90.6606V0.164223H86.7822V6.20899H86.2485C85.6669 5.43167 84.3558 4.41212 82.3687 4.41212C78.0031 4.41212 75.0198 7.73353 75.0198 11.9869C75.0198 16.2389 78.0031 19.537 82.3687 19.537C84.3558 19.537 85.9077 18.5175 86.4661 17.7402H86.9998Z" fill="black"/>
</svg>
