<svg width="42" height="56" viewBox="0 0 42 56" fill="none" xmlns="http://www.w3.org/2000/svg">
<path d="M42 22.9091C42 40.7273 21 56 21 56C21 56 0 40.7273 0 22.9091C8.29927e-08 16.8332 2.21249 11.0062 6.15076 6.70992C10.089 2.41363 15.4305 0 21 0C26.5695 0 31.911 2.41363 35.8492 6.70992C39.7875 11.0062 42 16.8332 42 22.9091Z" fill="white"/>
<path d="M13.5238 33.4736C13.5238 33.9888 13.5574 34.336 13.6246 34.5152C13.6918 34.6944 13.8934 34.784 14.2294 34.784C14.5654 34.784 14.767 34.6944 14.8342 34.5152C14.9014 34.336 14.935 33.9888 14.935 33.4736V29.744H17.287V33.4736C17.287 34.8176 17.0406 35.7696 16.5478 36.3296C16.0774 36.8672 15.3046 37.136 14.2294 37.136C13.1542 37.136 12.3702 36.856 11.8774 36.296C11.407 35.736 11.1718 34.784 11.1718 33.44V16.6064C11.1718 15.2624 11.407 14.3216 11.8774 13.784C12.3702 13.224 13.1542 12.944 14.2294 12.944C15.3046 12.944 16.0774 13.224 16.5478 13.784C17.0406 14.3216 17.287 15.2624 17.287 16.6064V20.336H14.935V16.6064C14.935 16.0912 14.9014 15.744 14.8342 15.5648C14.767 15.3856 14.5654 15.296 14.2294 15.296C13.8934 15.296 13.6918 15.3856 13.6246 15.5648C13.5574 15.744 13.5238 16.0912 13.5238 16.6064V33.4736ZM23.369 27.168V28.736H22.697V34.5824C22.697 35.4784 22.5328 36.1131 22.2042 36.4864C21.8906 36.8448 21.3754 37.024 20.6586 37.024C19.9418 37.024 19.4192 36.8373 19.0906 36.464C18.777 36.0907 18.6202 35.456 18.6202 34.56V29.4976C18.6202 29.1392 18.665 28.8181 18.7546 28.5344C18.8592 28.2507 19.016 28.064 19.225 27.9744V27.9296C18.8218 27.7504 18.6202 27.2949 18.6202 26.5632V23.3376C18.6202 22.4416 18.777 21.8144 19.0906 21.456C19.4192 21.0827 19.9418 20.896 20.6586 20.896C21.3754 20.896 21.8906 21.0827 22.2042 21.456C22.5328 21.8144 22.697 22.4416 22.697 23.3376V24.704H21.129V23.3376C21.129 22.9941 21.1066 22.7627 21.0618 22.6432C21.017 22.5237 20.8826 22.464 20.6586 22.464C20.4346 22.464 20.3002 22.5237 20.2554 22.6432C20.2106 22.7627 20.1882 22.9941 20.1882 23.3376V26.4512C20.1882 26.7499 20.2405 26.944 20.345 27.0336C20.4645 27.1232 20.6213 27.168 20.8154 27.168H23.369ZM21.129 28.736H20.569C20.4346 28.736 20.3376 28.7883 20.2778 28.8928C20.2181 28.9824 20.1882 29.0869 20.1882 29.2064V34.5824C20.1882 34.9259 20.2106 35.1573 20.2554 35.2768C20.3002 35.3963 20.4346 35.456 20.6586 35.456C20.8826 35.456 21.017 35.3963 21.0618 35.2768C21.1066 35.1573 21.129 34.9259 21.129 34.5824V28.736ZM30.8386 13.28V33.44C30.8386 34.784 30.5922 35.736 30.0994 36.296C29.629 36.856 28.8562 37.136 27.781 37.136C26.7058 37.136 25.9218 36.8672 25.429 36.3296C24.9586 35.7696 24.7234 34.8176 24.7234 33.4736V29.744H27.0754V33.4736C27.0754 33.9888 27.109 34.336 27.1762 34.5152C27.2434 34.6944 27.445 34.784 27.781 34.784C28.117 34.784 28.3186 34.6944 28.3858 34.5152C28.453 34.336 28.4866 33.9888 28.4866 33.4736V13.28H30.8386Z" fill="#101010"/>
</svg>
