<svg width="140" height="22" viewBox="0 0 140 22" fill="none" xmlns="http://www.w3.org/2000/svg">
<path d="M138.243 3.40366C138.417 3.40366 138.574 3.392 138.574 3.196C138.574 3.03671 138.419 3.00669 138.277 3.00669H137.996V3.40366H138.243ZM137.996 4.12506H137.792V2.84156H138.308C138.628 2.84156 138.787 2.95331 138.787 3.20601C138.787 3.43786 138.636 3.53627 138.434 3.56046L138.821 4.12506H138.59L138.232 3.57046H137.996V4.12506ZM138.246 4.41029C138.777 4.41029 139.197 4.01581 139.197 3.48123C139.197 2.95331 138.777 2.5555 138.246 2.5555C137.71 2.5555 137.288 2.95331 137.288 3.48123C137.288 4.01581 137.71 4.41029 138.246 4.41029ZM137.053 3.48123C137.053 2.84156 137.598 2.36952 138.246 2.36952C138.887 2.36952 139.433 2.84156 139.433 3.48123C139.433 4.12506 138.887 4.59627 138.246 4.59627C137.598 4.59627 137.053 4.12506 137.053 3.48123ZM82.7554 21.5385H82.0334L82.5694 20.6252L81.1834 18.2209H81.9426L82.9335 20.0998L83.869 18.2209H84.5664L82.7554 21.5385ZM79.3087 18.5319C78.7576 18.5319 78.3944 18.8654 78.3944 19.4251C78.3944 19.9838 78.733 20.3049 79.3087 20.3049C79.8703 20.3049 80.2238 19.9563 80.2238 19.4159C80.2238 18.8655 79.8906 18.5319 79.3087 18.5319ZM79.4912 20.7119C78.9049 20.7119 78.5716 20.5142 78.3732 20.2615C78.3732 20.3391 78.3547 20.5534 78.3494 20.621H77.7182C77.7226 20.4909 77.7367 20.2199 77.7367 20.1131V17.1683H78.3944V18.5936C78.6369 18.3309 78.9551 18.1307 79.4965 18.1307C80.2688 18.1307 80.9168 18.5794 80.9168 19.4117C80.9168 20.2048 80.2653 20.7119 79.4912 20.7119ZM134.844 20.7248L131.177 15.6258V20.7248H130.041V14.5692H131.769L135.44 19.6682V14.5692H136.575V20.7248H134.844ZM124.976 15.4558L123.452 18.4048H126.491L124.976 15.4558ZM127.69 20.7249L126.932 19.2504H123.003L122.237 20.7249H120.885L124.263 14.5693H125.761L129.121 20.7249H127.69ZM118.739 20.7248V15.3464L116.08 20.7248H114.701L112.044 15.3464V20.7248H110.917V14.5692H112.917L115.449 19.7357L117.973 14.5692H119.964V20.7248H118.739ZM106.557 15.4308H104.681V17.2555H106.557C107.556 17.2555 107.98 16.9987 107.98 16.334C107.98 15.6951 107.556 15.4308 106.557 15.4308ZM108.213 20.7249C108.132 20.393 108.051 19.9318 107.98 19.6674L107.781 18.9077C107.592 18.2021 107.321 18.1154 106.357 18.1154H104.681V20.7249H103.419V14.5693H106.853C108.556 14.5693 109.277 15.2164 109.277 16.2239C109.277 17.3239 108.015 17.6392 107.717 17.6817C108.502 17.7409 108.934 17.9461 109.106 18.901L109.339 19.9568C109.402 20.2887 109.493 20.6057 109.555 20.7249H108.213ZM98.353 15.4558L96.8313 18.4048H99.8677L98.353 15.4558ZM101.067 20.7249L100.309 19.2504H96.3799L95.6155 20.7249H94.2621L97.6415 14.5693H99.1377L102.5 20.7249H101.067ZM92.0818 20.7248V18.0052H88.2334V20.7248H86.9717V14.5692H88.2334V17.1112H92.0818V14.5692H93.3434V20.7248H92.0818ZM66.7474 12.6558L74.7203 0H75.2175L67.22 12.6558H66.7474ZM127.697 3.26864H130.297V4.68559H130.336C130.832 3.70065 131.799 3.11352 132.805 3.11352C135.107 3.11352 136.665 4.0134 136.665 6.36191V12.6402H134.069V7.07329C134.069 6.24097 133.953 5.25687 132.19 5.25687C130.611 5.25687 130.297 6.07 130.297 6.82977V12.6402H127.697V3.26864ZM119.16 6.24139C118.953 6.60584 118.675 7.29471 118.675 8.07282C118.675 8.8526 118.953 9.54314 119.16 9.90593C119.642 10.6849 120.365 10.9609 121.017 10.9609C121.667 10.9609 122.391 10.6849 122.872 9.90593C123.077 9.54314 123.357 8.8526 123.357 8.07282C123.357 7.29471 123.077 6.60584 122.872 6.24139C122.391 5.46412 121.667 5.18807 121.017 5.18807C120.365 5.18807 119.642 5.46412 119.16 6.24139ZM117.543 11.895C116.544 11.0477 116.062 9.59735 116.062 8.07282C116.062 6.55246 116.544 5.10216 117.543 4.254C118.435 3.49257 119.718 3.11394 121.017 3.11394C122.317 3.11394 123.598 3.49257 124.491 4.254C125.489 5.10216 125.975 6.55246 125.975 8.07282C125.975 9.59735 125.489 11.0477 124.491 11.895C123.598 12.6539 122.317 13.0367 121.017 13.0367C119.718 13.0367 118.435 12.6539 117.543 11.895ZM107.834 6.26057C107.65 6.62419 107.388 7.31473 107.388 8.09284C107.388 8.87012 107.65 9.56066 107.834 9.92511C108.279 10.7024 108.966 10.9793 109.58 10.9793C110.174 10.9793 110.858 10.7024 111.308 9.92511C111.492 9.56066 111.753 8.87012 111.753 8.09284C111.753 7.31473 111.492 6.62419 111.308 6.26057C110.858 5.48413 110.174 5.20558 109.58 5.20558C108.966 5.20558 108.279 5.48413 107.834 6.26057ZM114.349 12.6898H111.753V11.704H111.714C111.009 12.6731 109.99 13.0025 109.168 13.0367C107.353 13.1034 106.314 12.4287 105.532 10.8725C105.125 10.0269 104.826 9.18203 104.771 8.26381C104.715 7.34892 104.901 6.36232 105.42 5.23977C106.272 3.42418 107.926 3.16648 108.872 3.11394C110.563 3.04472 111.346 3.75444 111.714 4.54756H111.753V0.0381922H114.349V12.6898ZM98.1598 3.26864H100.756V5.08423H100.799C100.965 4.52963 101.095 4.20521 102.006 3.61558C102.45 3.3045 103.042 2.99426 103.859 3.11352V5.58463C102.745 5.4637 101.073 5.32525 100.756 7.36519V12.6402H98.1598V3.26864ZM93.3327 8.23078C92.5886 8.64611 91.5861 8.61108 90.9152 8.73284C90.1199 8.87045 89.5618 9.49177 89.7849 10.2515C89.9313 10.807 90.3977 11.2023 91.5103 11.0321C93.0541 10.807 93.3327 9.80285 93.3327 8.76704V8.23078ZM93.6272 12.6401C93.4402 12.4132 93.3327 12.0329 93.3503 11.7043C92.4387 12.4975 91.6425 13.0362 90.1199 13.0362C88.0736 13.0362 87.072 11.9637 87.1487 10.1481C87.2052 8.83376 87.7615 7.55609 90.0635 7.19247C91.028 7.15744 92.0666 6.95228 92.682 6.76213C93.144 6.60451 93.3671 6.15415 93.3327 5.70547C93.3327 5.11834 92.8116 4.85814 91.6249 4.85814C90.1358 4.85814 89.9524 5.70547 89.9127 6.38016H87.4626C87.4996 3.38949 90.2486 3.11344 91.6249 3.11344C92.6212 3.11344 93.4949 3.26856 93.9983 3.45871C95.0017 3.83818 95.7987 4.5996 95.7987 6.08494V11.2023C95.7802 11.6184 96.042 12.0329 96.3753 12.309V12.6401H93.6272ZM79.9199 0.037778V6.91651H79.9578L83.205 3.26864H86.1788L82.7809 6.84812L86.3984 12.6402H83.3549L80.9991 8.62868L79.9199 9.71536V12.6402H77.3217V0.037778H79.9199ZM55.7091 3.26864H58.3117V4.68559H58.3452C58.8504 3.70065 59.8132 3.11352 60.8183 3.11352C63.1203 3.11352 64.6782 4.0134 64.6782 6.36191V12.6402H62.0799V7.07329C62.0799 6.24097 61.9653 5.25687 60.202 5.25687C58.6247 5.25687 58.3117 6.07 58.3117 6.82977V12.6402H55.7091V3.26864ZM50.8624 8.23078C50.1183 8.64611 49.1159 8.61108 48.4493 8.73284C47.6488 8.87045 47.0916 9.49177 47.3155 10.2515C47.4636 10.807 47.9274 11.2023 49.0427 11.0321C50.5838 10.807 50.8624 9.80285 50.8624 8.76704V8.23078ZM51.1587 12.6401C50.9726 12.4132 50.8624 12.0329 50.8792 11.7043C49.9684 12.4975 49.1723 13.0362 47.6488 13.0362C45.6077 13.0362 44.6062 11.9637 44.6794 10.1481C44.7358 8.83376 45.2912 7.55609 47.5932 7.19247C48.5604 7.15744 49.5999 6.95228 50.2126 6.76213C50.6782 6.60451 50.9003 6.15415 50.8624 5.70547C50.8624 5.11834 50.3405 4.85814 49.1555 4.85814C47.6664 4.85814 47.4821 5.70547 47.4442 6.38016H44.9923C45.0303 3.38949 47.781 3.11344 49.1555 3.11344C50.1562 3.11344 51.0291 3.26856 51.5298 3.45871C52.5349 3.83818 53.3311 4.5996 53.3311 6.08494V11.2023C53.3126 11.6184 53.5718 12.0329 53.9041 12.309V12.6401H51.1587ZM28.9301 12.6402V3.26873H31.531V4.66983H31.5645C32.3827 3.56062 33.1268 2.92179 34.6503 3.11361C35.9287 3.26873 36.2849 3.68489 37.0246 4.47801C37.655 3.64986 38.437 2.88843 40.5504 3.11361C42.5606 3.38966 43.1142 4.63396 43.1142 6.13848V12.6402H40.516V6.19102C40.4781 5.49797 39.8318 5.23944 39.2164 5.20608C37.8252 5.11851 37.3253 6.26024 37.3253 6.89908V12.6402H34.7226V6.19102C34.5736 5.533 34.1107 5.22192 33.2943 5.20608C32.3827 5.18774 31.531 5.74234 31.531 6.89908V12.6402H28.9301ZM21.4248 3.26864H24.0257V5.08423H24.0619C24.2276 4.52963 24.3599 4.20521 25.268 3.61558C25.7132 3.3045 26.3083 2.99426 27.1247 3.11352V5.58463C26.0121 5.4637 24.3387 5.32525 24.0257 7.36519V12.6402H21.4248V3.26864ZM16.5983 8.23078C15.8542 8.64611 14.8526 8.61108 14.1817 8.73284C13.3846 8.87045 12.8283 9.49177 13.0514 10.2515C13.1968 10.807 13.6632 11.2023 14.775 11.0321C16.3206 10.807 16.5983 9.80285 16.5983 8.76704V8.23078ZM16.8936 12.6401C16.7058 12.4132 16.5983 12.0329 16.6159 11.7043C15.7078 12.4975 14.9081 13.0362 13.3846 13.0362C11.3436 13.0362 10.3385 11.9637 10.4117 10.1481C10.4716 8.83376 11.0271 7.55609 13.33 7.19247C14.2963 7.15744 15.3366 6.95228 15.9485 6.76213C16.4105 6.60451 16.6327 6.15415 16.5983 5.70547C16.5983 5.11834 16.0772 4.85814 14.8905 4.85814C13.4023 4.85814 13.218 5.70547 13.1801 6.38016H10.7282C10.767 3.38949 13.5134 3.11344 14.8905 3.11344C15.8921 3.11344 16.7649 3.26856 17.2657 3.45871C18.2681 3.83818 19.0669 4.5996 19.0669 6.08494V11.2023C19.0502 11.6184 19.3076 12.0329 19.6418 12.309V12.6401H16.8936ZM0 0.037778H2.60089V4.51545H2.63616C3.13694 3.70065 4.10412 3.11352 5.10833 3.11352C7.41034 3.11352 8.96823 4.0134 8.96823 6.36191V12.6402H6.37086V7.07329C6.37086 6.24097 6.25625 5.25687 4.49293 5.25687C2.91388 5.25687 2.60089 6.07 2.60089 6.82977V12.6402H0V0.037778ZM66.7474 12.6558L74.7203 0H75.2175L67.22 12.6558H66.7474ZM127.697 3.26864H130.297V4.68559H130.336C130.832 3.70065 131.799 3.11352 132.805 3.11352C135.107 3.11352 136.665 4.0134 136.665 6.36191V12.6402H134.069V7.07329C134.069 6.24097 133.953 5.25687 132.19 5.25687C130.611 5.25687 130.297 6.07 130.297 6.82977V12.6402H127.697V3.26864ZM119.16 6.24139C118.953 6.60584 118.675 7.29471 118.675 8.07282C118.675 8.8526 118.953 9.54314 119.16 9.90593C119.642 10.6849 120.365 10.9609 121.017 10.9609C121.667 10.9609 122.391 10.6849 122.872 9.90593C123.077 9.54314 123.357 8.8526 123.357 8.07282C123.357 7.29471 123.077 6.60584 122.872 6.24139C122.391 5.46412 121.667 5.18807 121.017 5.18807C120.365 5.18807 119.642 5.46412 119.16 6.24139ZM117.543 11.895C116.544 11.0477 116.062 9.59735 116.062 8.07282C116.062 6.55246 116.544 5.10216 117.543 4.254C118.435 3.49257 119.718 3.11394 121.017 3.11394C122.317 3.11394 123.598 3.49257 124.491 4.254C125.489 5.10216 125.975 6.55246 125.975 8.07282C125.975 9.59735 125.489 11.0477 124.491 11.895C123.598 12.6539 122.317 13.0367 121.017 13.0367C119.718 13.0367 118.435 12.6539 117.543 11.895ZM107.834 6.26057C107.65 6.62419 107.388 7.31473 107.388 8.09284C107.388 8.87012 107.65 9.56066 107.834 9.92511C108.279 10.7024 108.966 10.9793 109.58 10.9793C110.174 10.9793 110.858 10.7024 111.308 9.92511C111.492 9.56066 111.753 8.87012 111.753 8.09284C111.753 7.31473 111.492 6.62419 111.308 6.26057C110.858 5.48413 110.174 5.20558 109.58 5.20558C108.966 5.20558 108.279 5.48413 107.834 6.26057ZM114.349 12.6898H111.753V11.704H111.714C111.009 12.6731 109.99 13.0025 109.168 13.0367C107.353 13.1034 106.314 12.4287 105.532 10.8725C105.125 10.0269 104.826 9.18203 104.771 8.26381C104.715 7.34892 104.901 6.36232 105.42 5.23977C106.272 3.42418 107.926 3.16648 108.872 3.11394C110.563 3.04472 111.346 3.75444 111.714 4.54756H111.753V0.0381922H114.349V12.6898ZM98.1598 3.26864H100.756V5.08423H100.799C100.965 4.52963 101.095 4.20521 102.006 3.61558C102.45 3.3045 103.042 2.99426 103.859 3.11352V5.58463C102.745 5.4637 101.073 5.32525 100.756 7.36519V12.6402H98.1598V3.26864ZM93.3327 8.23078C92.5886 8.64611 91.5861 8.61108 90.9152 8.73284C90.1199 8.87045 89.5618 9.49177 89.7849 10.2515C89.9313 10.807 90.3977 11.2023 91.5103 11.0321C93.0541 10.807 93.3327 9.80285 93.3327 8.76704V8.23078ZM93.6272 12.6401C93.4402 12.4132 93.3327 12.0329 93.3503 11.7043C92.4387 12.4975 91.6425 13.0362 90.1199 13.0362C88.0736 13.0362 87.072 11.9637 87.1487 10.1481C87.2052 8.83376 87.7615 7.55609 90.0635 7.19247C91.028 7.15744 92.0666 6.95228 92.682 6.76213C93.144 6.60451 93.3671 6.15415 93.3327 5.70547C93.3327 5.11834 92.8116 4.85814 91.6249 4.85814C90.1358 4.85814 89.9524 5.70547 89.9127 6.38016H87.4626C87.4996 3.38949 90.2486 3.11344 91.6249 3.11344C92.6212 3.11344 93.4949 3.26856 93.9983 3.45871C95.0017 3.83818 95.7987 4.5996 95.7987 6.08494V11.2023C95.7802 11.6184 96.042 12.0329 96.3753 12.309V12.6401H93.6272ZM79.9199 0.037778V6.91651H79.9578L83.205 3.26864H86.1788L82.7809 6.84812L86.3984 12.6402H83.3549L80.9991 8.62868L79.9199 9.71536V12.6402H77.3217V0.037778H79.9199ZM55.7091 3.26864H58.3117V4.68559H58.3452C58.8504 3.70065 59.8132 3.11352 60.8183 3.11352C63.1203 3.11352 64.6782 4.0134 64.6782 6.36191V12.6402H62.0799V7.07329C62.0799 6.24097 61.9653 5.25687 60.202 5.25687C58.6247 5.25687 58.3117 6.07 58.3117 6.82977V12.6402H55.7091V3.26864ZM50.8624 8.23078C50.1183 8.64611 49.1159 8.61108 48.4493 8.73284C47.6488 8.87045 47.0916 9.49177 47.3155 10.2515C47.4636 10.807 47.9274 11.2023 49.0427 11.0321C50.5838 10.807 50.8624 9.80285 50.8624 8.76704V8.23078ZM51.1587 12.6401C50.9726 12.4132 50.8624 12.0329 50.8792 11.7043C49.9684 12.4975 49.1723 13.0362 47.6488 13.0362C45.6077 13.0362 44.6062 11.9637 44.6794 10.1481C44.7358 8.83376 45.2912 7.55609 47.5932 7.19247C48.5604 7.15744 49.5999 6.95228 50.2126 6.76213C50.6782 6.60451 50.9003 6.15415 50.8624 5.70547C50.8624 5.11834 50.3405 4.85814 49.1555 4.85814C47.6664 4.85814 47.4821 5.70547 47.4442 6.38016H44.9923C45.0303 3.38949 47.781 3.11344 49.1555 3.11344C50.1562 3.11344 51.0291 3.26856 51.5298 3.45871C52.5349 3.83818 53.3311 4.5996 53.3311 6.08494V11.2023C53.3126 11.6184 53.5718 12.0329 53.9041 12.309V12.6401H51.1587ZM28.9301 12.6402V3.26873H31.531V4.66983H31.5645C32.3827 3.56062 33.1268 2.92179 34.6503 3.11361C35.9287 3.26873 36.2849 3.68489 37.0246 4.47801C37.655 3.64986 38.437 2.88843 40.5504 3.11361C42.5606 3.38966 43.1142 4.63396 43.1142 6.13848V12.6402H40.516V6.19102C40.4781 5.49797 39.8318 5.23944 39.2164 5.20608C37.8252 5.11851 37.3253 6.26024 37.3253 6.89908V12.6402H34.7226V6.19102C34.5736 5.533 34.1107 5.22192 33.2943 5.20608C32.3827 5.18774 31.531 5.74234 31.531 6.89908V12.6402H28.9301ZM21.4248 3.26864H24.0257V5.08423H24.0619C24.2276 4.52963 24.3599 4.20521 25.268 3.61558C25.7132 3.3045 26.3083 2.99426 27.1247 3.11352V5.58463C26.0121 5.4637 24.3387 5.32525 24.0257 7.36519V12.6402H21.4248V3.26864ZM16.5983 8.23078C15.8542 8.64611 14.8526 8.61108 14.1817 8.73284C13.3846 8.87045 12.8283 9.49177 13.0514 10.2515C13.1968 10.807 13.6632 11.2023 14.775 11.0321C16.3206 10.807 16.5983 9.80285 16.5983 8.76704V8.23078ZM16.8936 12.6401C16.7058 12.4132 16.5983 12.0329 16.6159 11.7043C15.7078 12.4975 14.9081 13.0362 13.3846 13.0362C11.3436 13.0362 10.3385 11.9637 10.4117 10.1481C10.4716 8.83376 11.0271 7.55609 13.33 7.19247C14.2963 7.15744 15.3366 6.95228 15.9485 6.76213C16.4105 6.60451 16.6327 6.15415 16.5983 5.70547C16.5983 5.11834 16.0772 4.85814 14.8905 4.85814C13.4023 4.85814 13.218 5.70547 13.1801 6.38016H10.7282C10.767 3.38949 13.5134 3.11344 14.8905 3.11344C15.8921 3.11344 16.7649 3.26856 17.2657 3.45871C18.2681 3.83818 19.0669 4.5996 19.0669 6.08494V11.2023C19.0502 11.6184 19.3076 12.0329 19.6418 12.309V12.6401H16.8936ZM0 0.037778H2.60089V4.51545H2.63616C3.13694 3.70065 4.10412 3.11352 5.10833 3.11352C7.41034 3.11352 8.96823 4.0134 8.96823 6.36191V12.6402H6.37086V7.07329C6.37086 6.24097 6.25625 5.25687 4.49293 5.25687C2.91388 5.25687 2.60089 6.07 2.60089 6.82977V12.6402H0V0.037778Z" fill="#231F20"/>
</svg>
