<svg width="93" height="30" viewBox="0 0 93 30" fill="none" xmlns="http://www.w3.org/2000/svg">
<path d="M60.5743 0C53.9709 0 48.0699 3.40757 48.0699 9.70333C48.0699 16.9234 58.5356 17.4221 58.5356 21.0492C58.5356 22.5764 56.7777 23.9436 53.7752 23.9436C49.514 23.9436 46.3292 22.0333 46.3292 22.0333L44.9665 28.3864C44.9665 28.3864 48.6353 30 53.5063 30C60.7258 30 66.4068 26.4251 66.4068 20.0217C66.4068 12.3924 55.8974 11.9086 55.8974 8.54197C55.8974 7.3456 57.3405 6.03473 60.3344 6.03473C63.7125 6.03473 66.4685 7.42402 66.4685 7.42402L67.8022 1.28799C67.8022 1.28799 64.8034 0 60.5743 0ZM0.159894 0.463098L0 1.38929C0 1.38929 2.77805 1.89548 5.28013 2.90521C8.50176 4.06307 8.73126 4.73712 9.27384 6.83068L15.1863 29.5224H23.1119L35.322 0.463098H27.4145L19.5688 20.2207L16.3673 3.47323C16.0737 1.55649 14.5865 0.463098 12.7661 0.463098H0.159894ZM38.5017 0.463098L32.2985 29.5224H39.839L46.0203 0.463098H38.5017ZM80.5574 0.463098C78.7391 0.463098 77.7757 1.43228 77.0688 3.1259L66.0216 29.5224H73.929L75.4589 25.123H85.0925L86.0228 29.5224H93L86.9131 0.463098H80.5574ZM81.5858 8.31404L83.9297 19.2185H77.6502L81.5858 8.31404Z" fill="url(#paint0_linear_1247_1491)"/>
<defs>
<linearGradient id="paint0_linear_1247_1491" x1="-0.0347031" y1="10.2513" x2="93.0059" y2="10.2513" gradientUnits="userSpaceOnUse">
<stop stop-color="#20225F"/>
<stop offset="0.2" stop-color="#1A1F61"/>
<stop offset="0.410233" stop-color="#172272"/>
<stop offset="0.595197" stop-color="#152682"/>
<stop offset="0.802083" stop-color="#12288E"/>
<stop offset="1" stop-color="#0E2C9A"/>
</linearGradient>
</defs>
</svg>
