<svg width="28" height="28" viewBox="0 0 28 28" fill="none" xmlns="http://www.w3.org/2000/svg">
<path d="M13.9988 0.557983C6.57604 0.557983 0.558838 6.57518 0.558838 13.998C0.558838 21.4208 6.57604 27.438 13.9988 27.438C21.4216 27.438 27.4388 21.4208 27.4388 13.998C27.4388 6.57518 21.4216 0.557983 13.9988 0.557983ZM19.1676 15.7214C19.1676 15.7214 20.3562 16.8946 20.6488 17.4392C20.6572 17.4504 20.6614 17.4616 20.6642 17.4672C20.7832 17.6674 20.8112 17.8228 20.7524 17.939C20.6544 18.1322 20.3184 18.2274 20.2036 18.2358H18.1036C17.958 18.2358 17.6528 18.198 17.2832 17.9432C16.999 17.7444 16.719 17.4182 16.446 17.1004C16.0386 16.6272 15.6858 16.2184 15.3302 16.2184C15.2851 16.2183 15.2402 16.2254 15.1972 16.2394C14.9284 16.3262 14.584 16.7098 14.584 17.7318C14.584 18.051 14.332 18.2344 14.1542 18.2344H13.1924C12.8648 18.2344 11.1582 18.1196 9.64623 16.525C7.79544 14.572 6.12944 10.6548 6.11544 10.6184C6.01044 10.365 6.22744 10.2292 6.46404 10.2292H8.58504C8.86784 10.2292 8.96024 10.4014 9.02464 10.554C9.10024 10.7318 9.37744 11.4388 9.83244 12.234C10.5702 13.5304 11.0224 14.0568 11.385 14.0568C11.453 14.056 11.5198 14.0387 11.5796 14.0064C12.0528 13.7432 11.9646 12.0562 11.9436 11.7062C11.9436 11.6404 11.9422 10.9516 11.7 10.6212C11.5264 10.3818 11.231 10.2908 11.0518 10.2572C11.1244 10.1571 11.2199 10.0759 11.3304 10.0206C11.6552 9.85818 12.2404 9.83438 12.8214 9.83438H13.1448C13.7748 9.84278 13.9372 9.88339 14.1654 9.94079C14.6274 10.0514 14.6372 10.3496 14.5966 11.3702C14.584 11.66 14.5714 11.9876 14.5714 12.374C14.5714 12.458 14.5672 12.5476 14.5672 12.6428C14.5532 13.1622 14.5364 13.7516 14.9032 13.9938C14.9511 14.0238 15.0064 14.0398 15.0628 14.04C15.1902 14.04 15.5738 14.04 16.6126 12.2578C16.933 11.6841 17.2114 11.0881 17.4456 10.4742C17.4666 10.4378 17.5282 10.3258 17.601 10.2824C17.6548 10.255 17.7143 10.2411 17.7746 10.2418H20.268C20.5396 10.2418 20.7258 10.2824 20.7608 10.3874C20.8224 10.554 20.7496 11.0622 19.6114 12.6036L19.1032 13.2742C18.0714 14.6266 18.0714 14.6952 19.1676 15.7214V15.7214Z" fill="#F4F3F3"/>
</svg>
