<svg width="28" height="28" viewBox="0 0 28 28" fill="none" xmlns="http://www.w3.org/2000/svg">
<path d="M16.243 13.7685L13.0986 12.3013C12.8242 12.1739 12.5988 12.3167 12.5988 12.6205V15.3841C12.5988 15.6879 12.8242 15.8307 13.0986 15.7033L16.2416 14.2361C16.5174 14.1073 16.5174 13.8973 16.243 13.7685ZM13.9988 0.562256C6.57604 0.562256 0.558838 6.57946 0.558838 14.0023C0.558838 21.4251 6.57604 27.4423 13.9988 27.4423C21.4216 27.4423 27.4388 21.4251 27.4388 14.0023C27.4388 6.57946 21.4216 0.562256 13.9988 0.562256ZM13.9988 19.4623C7.11924 19.4623 6.99884 18.8421 6.99884 14.0023C6.99884 9.16246 7.11924 8.54226 13.9988 8.54226C20.8784 8.54226 20.9988 9.16246 20.9988 14.0023C20.9988 18.8421 20.8784 19.4623 13.9988 19.4623Z" fill="#101010"/>
</svg>
